<svg xmlns="http://www.w3.org/2000/svg" width="334.273" height="92.43" viewBox="0 0 334.273 92.43"><g transform="translate(0 0.87)"><g transform="translate(0 -0.87)"><path d="M215.412,0,149.26,48.042V0Z" transform="translate(-70.728 0.458)" fill="#37b34a"/><path d="M215.991,134.48H149.26V91.31Z" transform="translate(-70.728 -42.81)" fill="#37b34a"/><path d="M66.636,69.451a2.553,2.553,0,0,1-.184.3A40.86,40.86,0,0,1,49.947,85.5q-10.781,5.724-25.218,5.714H0V0H24.929q14.206.032,24.95,5.724A40.55,40.55,0,0,1,66.636,21.83c.5.873.958,1.747,1.394,2.631h0a48.55,48.55,0,0,1,4.5,21.114A47.066,47.066,0,0,1,66.636,69.451Zm-24.281-48.9a34.578,34.578,0,0,0-6.577.884,23.092,23.092,0,0,0-11.191,6.082,23.8,23.8,0,0,0-6.593,13.774q4.209-1.668,9.623-3.352a88.918,88.918,0,0,0,9.428-3.246,18.341,18.341,0,0,0,5.572-3.651,7.187,7.187,0,0,0,1.052-1.2h0v-.032a7.3,7.3,0,0,0,.673-2.162,8.661,8.661,0,0,0,.095-1.294A7.919,7.919,0,0,0,42.354,20.551Zm-2.1,33.626a68.751,68.751,0,0,0-12.99,5.335A7.655,7.655,0,0,0,23.1,66.4a7.789,7.789,0,0,0,2.1,5.788q11.286-.463,17.768-6.961,5.556-5.535,6.7-14.537-4.146,1.7-9.455,3.5Z" transform="translate(0 0.458)" fill="#37b34a"/><text transform="translate(144.363 39)" fill="#37b34a" font-size="37" font-family="Poppins-Bold, Poppins" font-weight="700"><tspan x="0" y="0">DREAM</tspan></text><text transform="translate(145.273 78.43)" fill="#37b34a" font-size="41" font-family="Poppins-Bold, Poppins" font-weight="700"><tspan x="0" y="0">SHAKERS</tspan></text></g></g></svg>