<svg xmlns="http://www.w3.org/2000/svg" width="65.308" height="66" viewBox="0 0 65.308 66"><path d="M1373.709,2797.678l.1-.263c.068-.174.134-.35.2-.525l-4-1.553c-.036.1-.073.2-.112.3-.027.075-.056.147-.084.221s-.069.176-.1.263q-.18.449-.378.888a23.9,23.9,0,0,1-5.353,7.568q-.475.453-.974.877l-.015.013a24.111,24.111,0,0,1-5.639,3.579c-.228.1-.458.2-.689.3h0q-.639.268-1.292.5-.854.3-1.731.537l-.12.031a23.916,23.916,0,0,1-10.547.388l-.15-.028a24.127,24.127,0,0,1-4.14-1.2c-.187-.073-.373-.147-.557-.225q-.644-.267-1.264-.569a24.006,24.006,0,0,1-3.682-2.214l-.134-.1a24,24,0,0,1-6.844-7.928l-.1-.18q-.518-.983-.942-2.011c-.177-.426-.342-.859-.494-1.295a24.046,24.046,0,0,1-1.312-6.745c-.009-.159-.015-.318-.019-.476,0-.119-.006-.24-.007-.359a23.949,23.949,0,0,1,1.534-8.768c.033-.088.067-.177.1-.265.068-.175.137-.348.21-.52l-4-1.553q-.107.259-.209.521c-.034.088-.067.176-.1.265-.07.185-.138.37-.2.555l-4.415.058a32.4,32.4,0,0,0-1.208,5.95q-.036.336-.064.672l4.082,1.681a28.125,28.125,0,0,0,.166,4.315l-3.942,1.983a32.616,32.616,0,0,0,1.791,6.553l.57-.036,2.051-.127,1.788-.111a28.575,28.575,0,0,0,1.888,3.553l-2.7,3.492a32.409,32.409,0,0,0,4.469,5.185l3.861-2.152a28.22,28.22,0,0,0,3.221,2.372l-.917,4.321a32.755,32.755,0,0,0,4.316,2.048q1,.387,2,.7l2.54-3.613a28.2,28.2,0,0,0,3.932.75l1.066,4.295a32.259,32.259,0,0,0,6.917-.265l.7-4.358a28.385,28.385,0,0,0,3.843-1.032h0l1.171,1.4.681.813.989,1.184a32.644,32.644,0,0,0,6.13-3.245l-1.272-4.217a28.345,28.345,0,0,0,2.93-2.506l4.043,1.832q.536-.58,1.045-1.189a32.333,32.333,0,0,0,3.077-4.368l-2.973-3.247a28.647,28.647,0,0,0,1.262-2.734" transform="translate(-1314.979 -2753.686)" fill="#39b54a"/><path d="M1380.388,2756.226c-.033.088-.067.177-.1.264-.068.174-.137.348-.209.521l-4-1.552c.042-.1.083-.2.122-.3.031-.073.059-.146.087-.22s.068-.176.1-.264q.17-.453.321-.91a23.9,23.9,0,0,0,1.157-9.2q-.045-.655-.127-1.3c0-.006,0-.013,0-.019a24.094,24.094,0,0,0-1.746-6.446q-.146-.346-.3-.687h0q-.29-.63-.618-1.24-.427-.8-.915-1.564c-.022-.035-.044-.07-.067-.1a23.924,23.924,0,0,0-7.521-7.4l-.13-.08a24.252,24.252,0,0,0-3.864-1.91q-.28-.108-.562-.209-.656-.238-1.316-.433a23.978,23.978,0,0,0-4.211-.852l-.165-.018a24,24,0,0,0-10.4,1.232c-.065.022-.129.046-.192.068q-1.046.376-2.052.848c-.418.195-.831.4-1.238.622a24.061,24.061,0,0,0-5.521,4.092c-.114.111-.225.224-.336.339-.083.086-.167.173-.247.261a23.936,23.936,0,0,0-4.785,7.505c-.035.087-.07.175-.1.263-.068.175-.134.35-.2.525l-4-1.552c.063-.176.13-.351.2-.525q.051-.132.1-.263.109-.276.225-.547l-3.219-3.022a32.39,32.39,0,0,1,3.124-5.206q.2-.272.407-.539l4.147,1.514a28.135,28.135,0,0,1,3.035-3.073l-1.571-4.123a32.666,32.666,0,0,1,5.744-3.627l.4.412,1.427,1.478,1.244,1.288a28.612,28.612,0,0,1,3.791-1.348l.363-4.4a32.374,32.374,0,0,1,6.8-.81l1.4,4.194a28.186,28.186,0,0,1,3.977.424l2.239-3.807a32.718,32.718,0,0,1,4.568,1.4q1,.386,1.953.831l-.563,4.38a28.215,28.215,0,0,1,3.408,2.1l3.685-2.45a32.217,32.217,0,0,1,4.925,4.865l-2.421,3.691a28.354,28.354,0,0,1,2.139,3.355h0l1.81-.243,1.052-.142,1.529-.206a32.635,32.635,0,0,1,2.334,6.531l-3.785,2.253a28.316,28.316,0,0,1,.472,3.828l4.22,1.376q0,.79-.031,1.583a32.316,32.316,0,0,1-.677,5.3l-4.385.389a28.566,28.566,0,0,1-.914,2.869" transform="translate(-1321.088 -2713.703)" fill="#39b54a"/><g transform="translate(7.127 7.723)"><path d="M1125.5,1819.124a25.278,25.278,0,1,1-25.278-25.277,25.277,25.277,0,0,1,25.278,25.277" transform="translate(-1074.945 -1793.847)" fill="#39b54a"/><path d="M21.056,8.285H14.5V10.7a3.107,3.107,0,0,1-6.213,0V5.454l-2.8,1.683A2.756,2.756,0,0,0,4.142,9.5v2.041L.69,13.536a1.377,1.377,0,0,0-.5,1.886L3.637,21.4a1.381,1.381,0,0,0,1.886.5l4.461-2.576h5.894a2.764,2.764,0,0,0,2.761-2.761h.69a1.379,1.379,0,0,0,1.381-1.381V12.427h.345a1.033,1.033,0,0,0,1.036-1.036V9.321A1.033,1.033,0,0,0,21.056,8.285Zm6.373-1.614L23.977.691a1.381,1.381,0,0,0-1.886-.5L17.63,2.762H13.22a2.782,2.782,0,0,0-1.463.419l-1.445.9a1.371,1.371,0,0,0-.647,1.169V10.7a1.726,1.726,0,0,0,3.452,0V6.9h7.939a2.418,2.418,0,0,1,2.416,2.416v1.23l3.452-1.993a1.382,1.382,0,0,0,.5-1.886Z" transform="translate(12.963 14.231)" fill="#fff"/></g></svg>