<svg xmlns="http://www.w3.org/2000/svg" width="72.302" height="73.068" viewBox="0 0 72.302 73.068"><g transform="translate(4.271 5.126)"><path d="M694.092,1825.45a31.6,31.6,0,1,1-31.6-31.6,31.6,31.6,0,0,1,31.6,31.6" transform="translate(-630.885 -1793.847)" fill="#39b54a"/><path d="M668.547,1845.17s11.636-5.817,11.636-14.545v-10.181l-11.636-4.363-11.636,4.363v10.181C656.911,1839.353,668.547,1845.17,668.547,1845.17Z" transform="translate(-636.943 -1799.023)" fill="none" stroke="#fff" stroke-linecap="round" stroke-linejoin="round" stroke-width="3.791"/></g><path d="M1380,2799.96l.115-.291c.075-.193.148-.387.218-.581l-4.426-1.719c-.039.113-.081.225-.124.337-.03.083-.062.163-.093.245-.038.1-.077.195-.115.292q-.2.5-.418.983a26.46,26.46,0,0,1-5.926,8.379q-.526.5-1.078.971l-.016.014a26.7,26.7,0,0,1-6.243,3.962c-.252.115-.506.226-.762.333h0q-.708.3-1.431.552-.946.332-1.916.595l-.132.034a26.477,26.477,0,0,1-11.677.43l-.166-.031a26.7,26.7,0,0,1-4.584-1.326c-.207-.08-.413-.163-.616-.249q-.713-.3-1.4-.629a26.583,26.583,0,0,1-4.077-2.451l-.148-.108a26.573,26.573,0,0,1-7.578-8.777c-.036-.067-.071-.133-.106-.2q-.573-1.088-1.043-2.226c-.2-.471-.378-.95-.547-1.433a26.621,26.621,0,0,1-1.453-7.468c-.01-.176-.016-.352-.021-.527,0-.132-.007-.265-.008-.4a26.513,26.513,0,0,1,1.7-9.707c.037-.1.074-.2.112-.293.075-.193.152-.386.232-.575l-4.426-1.719q-.119.287-.231.576c-.038.1-.075.2-.111.293-.077.2-.153.409-.225.615l-4.888.064a35.863,35.863,0,0,0-1.338,6.587q-.039.372-.071.744l4.519,1.862a31.145,31.145,0,0,0,.184,4.777l-4.364,2.2a36.113,36.113,0,0,0,1.983,7.255l.631-.04,2.27-.141,1.979-.123a31.658,31.658,0,0,0,2.09,3.934l-2.992,3.866a35.888,35.888,0,0,0,4.947,5.74l4.275-2.383a31.236,31.236,0,0,0,3.566,2.626l-1.015,4.783a36.238,36.238,0,0,0,4.778,2.267q1.1.429,2.217.78l2.813-4a31.224,31.224,0,0,0,4.353.83l1.181,4.755a35.7,35.7,0,0,0,7.658-.294l.78-4.824a31.438,31.438,0,0,0,4.254-1.142h0l1.3,1.551.754.9,1.1,1.311a36.148,36.148,0,0,0,6.786-3.592l-1.408-4.669a31.391,31.391,0,0,0,3.244-2.775l4.476,2.029q.593-.642,1.157-1.316a35.769,35.769,0,0,0,3.406-4.836l-3.292-3.594a31.66,31.66,0,0,0,1.4-3.027" transform="translate(-1314.979 -2751.256)" fill="#39b54a"/><path d="M1386.367,2760.78c-.037.1-.074.2-.111.293-.075.193-.152.385-.231.576l-4.426-1.718c.047-.111.092-.221.135-.333.034-.081.065-.162.1-.243.038-.1.075-.2.112-.293q.188-.5.355-1.008a26.454,26.454,0,0,0,1.281-10.182q-.05-.725-.141-1.444c0-.006,0-.015,0-.021a26.672,26.672,0,0,0-1.933-7.136q-.162-.383-.338-.761h0q-.322-.7-.684-1.372-.473-.884-1.013-1.732c-.024-.039-.049-.078-.074-.115a26.486,26.486,0,0,0-8.327-8.2l-.144-.089a26.846,26.846,0,0,0-4.278-2.115q-.31-.12-.623-.232-.726-.263-1.457-.479a26.551,26.551,0,0,0-4.662-.943l-.182-.02a26.568,26.568,0,0,0-11.516,1.364c-.072.024-.142.051-.213.075q-1.158.416-2.272.939c-.463.216-.92.447-1.371.688a26.63,26.63,0,0,0-6.112,4.53c-.126.123-.249.248-.372.375-.092.095-.184.191-.274.289a26.5,26.5,0,0,0-5.3,8.309c-.039.1-.078.194-.115.291-.075.194-.148.388-.217.582l-4.426-1.719c.07-.195.144-.388.218-.581.038-.1.076-.194.115-.291q.121-.305.249-.606l-3.563-3.346a35.858,35.858,0,0,1,3.458-5.763q.222-.3.45-.6l4.591,1.676a31.164,31.164,0,0,1,3.36-3.4l-1.739-4.565a36.151,36.151,0,0,1,6.359-4.016l.439.456,1.58,1.636,1.377,1.426a31.7,31.7,0,0,1,4.2-1.492l.4-4.872a35.844,35.844,0,0,1,7.524-.9l1.546,4.643a31.2,31.2,0,0,1,4.4.469l2.479-4.215a36.182,36.182,0,0,1,5.057,1.552q1.1.427,2.162.92l-.624,4.85a31.207,31.207,0,0,1,3.773,2.325l4.08-2.713a35.674,35.674,0,0,1,5.453,5.386l-2.68,4.086a31.4,31.4,0,0,1,2.368,3.714h0l2-.269,1.164-.157,1.692-.228a36.133,36.133,0,0,1,2.584,7.231l-4.191,2.494a31.338,31.338,0,0,1,.522,4.238l4.672,1.523q0,.875-.034,1.752a35.776,35.776,0,0,1-.75,5.867l-4.855.431a31.606,31.606,0,0,1-1.011,3.177" transform="translate(-1320.716 -2713.703)" fill="#39b54a"/></svg>