<svg xmlns="http://www.w3.org/2000/svg" width="23.671" height="23.671" viewBox="0 0 23.671 23.671"><path d="M12.4.563A11.835,11.835,0,1,0,24.233,12.4,11.837,11.837,0,0,0,12.4.563Zm0,5.25a2,2,0,1,1-2,2A2,2,0,0,1,12.4,5.812ZM15.07,17.934a.573.573,0,0,1-.573.573H10.3a.573.573,0,0,1-.573-.573V16.789a.573.573,0,0,1,.573-.573h.573V13.162H10.3a.573.573,0,0,1-.573-.573V11.443a.573.573,0,0,1,.573-.573h3.054a.573.573,0,0,1,.573.573v4.772H14.5a.573.573,0,0,1,.573.573Z" transform="translate(-0.563 -0.563)" fill="#fff"/></svg>