<svg xmlns="http://www.w3.org/2000/svg" width="18.332" height="18.331" viewBox="0 0 18.332 18.331"><path d="M22.293,18.856A15.4,15.4,0,0,0,19.076,16.7c-.964-.463-1.317-.453-2,.038-.568.41-.935.792-1.589.649a9.48,9.48,0,0,1-3.193-2.362,9.412,9.412,0,0,1-2.362-3.193c-.138-.659.243-1.021.649-1.589.492-.682.506-1.036.038-2A15.094,15.094,0,0,0,8.467,5.031c-.7-.7-.859-.549-1.246-.41a7.088,7.088,0,0,0-1.141.606,3.441,3.441,0,0,0-1.37,1.446c-.272.587-.587,1.68,1.017,4.534a25.3,25.3,0,0,0,4.448,5.932h0l0,0,0,0h0A25.4,25.4,0,0,0,16.117,21.6c2.854,1.6,3.947,1.289,4.534,1.017a3.382,3.382,0,0,0,1.446-1.37A7.088,7.088,0,0,0,22.7,20.1C22.842,19.715,23,19.558,22.293,18.856Z" transform="translate(-4.49 -4.502)" fill="#fff"/></svg>