<svg xmlns="http://www.w3.org/2000/svg" width="25.339" height="17.104" viewBox="0 0 25.339 17.104"><path d="M.072,19.657V5.583q0-.024.073-.464L8.429,12.2.17,20.146a2.071,2.071,0,0,1-.1-.489Zm1.1-15.516a1.053,1.053,0,0,1,.415-.073H23.9a1.384,1.384,0,0,1,.44.073l-8.308,7.11-1.1.88-2.175,1.784-2.175-1.784-1.1-.88ZM1.2,21.1l8.332-7.99,3.225,2.614,3.225-2.614,8.332,7.99a1.173,1.173,0,0,1-.415.073H1.587A1.107,1.107,0,0,1,1.2,21.1ZM17.078,12.2l8.259-7.086a1.458,1.458,0,0,1,.073.464V19.657a1.873,1.873,0,0,1-.073.489Z" transform="translate(-0.072 -4.068)" fill="#fff"/></svg>