<svg xmlns="http://www.w3.org/2000/svg" width="28.278" height="28.278" viewBox="0 0 28.278 28.278"><path d="M17.995,12.854a5.141,5.141,0,1,0,5.141,5.141,5.14,5.14,0,0,0-5.141-5.141ZM29.486,16.71A11.561,11.561,0,0,0,19.28,6.5V3.856H16.71V6.5A11.561,11.561,0,0,0,6.5,16.71H3.856V19.28H6.5A11.561,11.561,0,0,0,16.71,29.486v2.648H19.28V29.486A11.561,11.561,0,0,0,29.486,19.28h2.648V16.71H29.486ZM17.995,26.992a9,9,0,1,1,9-9A9,9,0,0,1,17.995,26.992Z" transform="translate(-3.856 -3.856)" fill="#fff"/></svg>