<svg xmlns="http://www.w3.org/2000/svg" width="211.091" height="30.847" viewBox="0 0 211.091 30.847"><g transform="translate(-268.948 -72.88)"><path d="M405.315,159.835a3.689,3.689,0,0,1-.8-2.555V156.5h2.037v.94q0,1.332,1.116,1.332a1.047,1.047,0,0,0,.832-.324,1.573,1.573,0,0,0,.284-1.048,2.9,2.9,0,0,0-.391-1.517,7.265,7.265,0,0,0-1.45-1.576,8.677,8.677,0,0,1-1.86-2.125,4.327,4.327,0,0,1-.529-2.144,3.572,3.572,0,0,1,.823-2.517,3.089,3.089,0,0,1,2.389-.892,2.971,2.971,0,0,1,2.34.892,3.721,3.721,0,0,1,.793,2.556v.568H408.86v-.705a1.57,1.57,0,0,0-.275-1.028.992.992,0,0,0-.8-.324q-1.078,0-1.077,1.312a2.584,2.584,0,0,0,.4,1.391,7.635,7.635,0,0,0,1.459,1.566,8.068,8.068,0,0,1,1.86,2.135,4.731,4.731,0,0,1,.509,2.252,3.672,3.672,0,0,1-.832,2.585,3.128,3.128,0,0,1-2.418.9,3.024,3.024,0,0,1-2.37-.892" transform="translate(-63 -57)" fill="#fff"/><path d="M413.245,159.826a3.591,3.591,0,0,1-.842-2.546v-7.207a3.591,3.591,0,0,1,.842-2.546,3.723,3.723,0,0,1,4.857,0,3.591,3.591,0,0,1,.842,2.546v7.207a3.591,3.591,0,0,1-.842,2.546,3.723,3.723,0,0,1-4.857,0m3.545-2.409v-7.481q0-1.352-1.116-1.351t-1.117,1.351v7.481q0,1.351,1.117,1.351t1.116-1.351" transform="translate(-63 -57)" fill="#fff"/><path d="M420.785,146.822h2.154v11.75h3.545v1.958h-5.7Z" transform="translate(-63 -57)" fill="#fff"/><path d="M428.658,159.835a3.632,3.632,0,0,1-.823-2.555V146.823h2.155v10.614a1.494,1.494,0,0,0,.284,1.019,1.211,1.211,0,0,0,1.625,0,1.5,1.5,0,0,0,.284-1.019V146.823h2.076V157.28a3.627,3.627,0,0,1-.823,2.555,3.645,3.645,0,0,1-4.778,0" transform="translate(-63 -57)" fill="#fff"/><path d="M437.862,148.781H435.61v-1.958h6.658v1.958h-2.252v11.75h-2.154Z" transform="translate(-63 -57)" fill="#fff"/><rect width="2.154" height="13.708" transform="translate(380.698 89.822)" fill="#fff"/><path d="M448.534,159.826a3.591,3.591,0,0,1-.842-2.546v-7.207a3.591,3.591,0,0,1,.842-2.546,3.723,3.723,0,0,1,4.857,0,3.591,3.591,0,0,1,.842,2.546v7.207a3.591,3.591,0,0,1-.842,2.546,3.723,3.723,0,0,1-4.857,0m3.545-2.409v-7.481q0-1.352-1.116-1.351t-1.117,1.351v7.481q0,1.351,1.117,1.351t1.116-1.351" transform="translate(-63 -57)" fill="#fff"/><path d="M456.074,146.822h2.7l2.1,8.206h.039v-8.206h1.919V160.53h-2.213l-2.585-10.007h-.039V160.53h-1.919Z" transform="translate(-63 -57)" fill="#fff"/><path d="M465.258,159.835a3.689,3.689,0,0,1-.8-2.555V156.5h2.037v.94q0,1.332,1.116,1.332a1.047,1.047,0,0,0,.832-.324,1.573,1.573,0,0,0,.284-1.048,2.9,2.9,0,0,0-.391-1.517,7.238,7.238,0,0,0-1.45-1.576,8.676,8.676,0,0,1-1.86-2.125,4.337,4.337,0,0,1-.529-2.144,3.572,3.572,0,0,1,.823-2.517,3.089,3.089,0,0,1,2.389-.892,2.971,2.971,0,0,1,2.34.892,3.721,3.721,0,0,1,.793,2.556v.568H468.8v-.705a1.57,1.57,0,0,0-.275-1.028.992.992,0,0,0-.8-.324q-1.079,0-1.077,1.312a2.585,2.585,0,0,0,.4,1.391,7.635,7.635,0,0,0,1.459,1.566,8.068,8.068,0,0,1,1.86,2.135,4.73,4.73,0,0,1,.509,2.252,3.672,3.672,0,0,1-.832,2.585,3.128,3.128,0,0,1-2.418.9,3.024,3.024,0,0,1-2.37-.892" transform="translate(-63 -57)" fill="#fff"/><path d="M411.931,143.608H400.905V129.881h10.829v2.859h-7.246v2.566h6.541v2.849h-6.541v2.595h7.442Z" transform="translate(-63 -57)" fill="#fff"/><path d="M427.107,143.608h-3.133l-6.228-8.2v8.2H414.4V129.881h3.153l6.247,8.264-.019-8.264h3.329Z" transform="translate(-63 -57)" fill="#fff"/><path d="M439.167,135.609h3.059l.019,6.247a10.468,10.468,0,0,1-2.555,1.253,9.635,9.635,0,0,1-3.163.509,7.811,7.811,0,0,1-3.833-.908,6.645,6.645,0,0,1-3.511-5.979,6.318,6.318,0,0,1,2.164-4.9,7.781,7.781,0,0,1,5.415-1.953,8.465,8.465,0,0,1,5.64,2.037l-2.037,2.4a5.73,5.73,0,0,0-3.623-1.4,3.828,3.828,0,0,0-2.771,1.072,3.939,3.939,0,0,0,.02,5.494,3.873,3.873,0,0,0,2.791,1.082,5.672,5.672,0,0,0,2.389-.647v-1.743Z" transform="translate(-63 -57)" fill="#fff"/><rect width="3.584" height="13.728" transform="translate(381.889 72.88)" fill="#fff"/><path d="M464.12,143.608h-3.133l-6.228-8.2v8.2h-3.349V129.881h3.153l6.247,8.264-.019-8.264h3.329Z" transform="translate(-63 -57)" fill="#fff"/><path d="M478.1,143.608H467.076V129.881h10.83v2.859H470.66v2.566H477.2v2.849H470.66v2.595H478.1Z" transform="translate(-63 -57)" fill="#fff"/><path d="M491.595,143.608H480.569V129.881H491.4v2.859h-7.246v2.566h6.541v2.849h-6.541v2.595h7.442Z" transform="translate(-63 -57)" fill="#fff"/><path d="M506.36,143.608h-4.054l-2-3.8h-2.664v3.8h-3.583V129.881h6.168a7.407,7.407,0,0,1,3.251.617,4.116,4.116,0,0,1,1.866,1.7,5.066,5.066,0,0,1,.6,2.5,4.643,4.643,0,0,1-2.448,4.427Zm-6.11-6.658q2.292,0,2.291-2.139,0-2.061-2.291-2.061h-2.605v4.2Z" transform="translate(-63 -57)" fill="#fff"/><rect width="3.584" height="13.728" transform="translate(445.514 72.88)" fill="#fff"/><path d="M527.745,143.608h-3.133l-6.228-8.2v8.2h-3.349V129.881h3.153l6.247,8.264-.019-8.264h3.329Z" transform="translate(-63 -57)" fill="#fff"/><path d="M539.8,135.609h3.059l.019,6.247a10.469,10.469,0,0,1-2.555,1.253,9.635,9.635,0,0,1-3.163.509,7.818,7.818,0,0,1-3.834-.908,6.647,6.647,0,0,1-3.51-5.979,6.318,6.318,0,0,1,2.164-4.9,7.781,7.781,0,0,1,5.415-1.953,8.465,8.465,0,0,1,5.64,2.037l-2.037,2.4a5.73,5.73,0,0,0-3.623-1.4,3.828,3.828,0,0,0-2.771,1.072,3.939,3.939,0,0,0,.02,5.494,3.873,3.873,0,0,0,2.791,1.082,5.672,5.672,0,0,0,2.389-.647v-1.743Z" transform="translate(-63 -57)" fill="#fff"/><path d="M6.12-8.9a6.941,6.941,0,0,1,2.81.529A4.317,4.317,0,0,1,10.79-6.9a3.671,3.671,0,0,1,.656,2.154,4.568,4.568,0,0,1-.685,2.507A4.475,4.475,0,0,1,8.8-.578,6.991,6.991,0,0,1,5.846.01a9.3,9.3,0,0,1-2.84-.47A9.878,9.878,0,0,1,.421-1.694L1.753-4.279a5.965,5.965,0,0,0,3.7,1.527A2.434,2.434,0,0,0,7.03-3.206a1.523,1.523,0,0,0,.558-1.249q0-1.626-2.213-1.626H1.616v-7.647h9.224v2.879H4.906V-8.9ZM19.074.01a10.145,10.145,0,0,1-6.325-2.232l1.39-2.669A10.408,10.408,0,0,0,16.812-3.4a6.934,6.934,0,0,0,2.3.477q1.723,0,1.723-1.089a1.158,1.158,0,0,0-.8-1.089q-.45-.188-.8-.3a19.522,19.522,0,0,1-3.9-1.314A3.147,3.147,0,0,1,13.61-9.628a3.474,3.474,0,0,1,1.537-3.059,6.848,6.848,0,0,1,3.946-1.051,9.987,9.987,0,0,1,5.483,1.547L23.226-9.372A9.474,9.474,0,0,0,18.8-10.8q-1.43,0-1.43.92a1.09,1.09,0,0,0,.607.91,6.763,6.763,0,0,0,1.958.7,12.733,12.733,0,0,1,3.133,1.239A3.217,3.217,0,0,1,24.6-4.1a3.484,3.484,0,0,1-.754,2.3A4.655,4.655,0,0,1,21.762-.422,8.283,8.283,0,0,1,19.074.01ZM33.233,0H29.649V-10.771H25.576v-2.957h11.77v2.957H33.233ZM50.114,0H46.295l-.94-2.428H39.421L38.462,0H34.78l5.895-13.728h3.682ZM44.3-5.17l-1.88-4.9L40.5-5.17ZM64,0H59.944l-2-3.8H55.284V0H51.7V-13.728h6.169a7.42,7.42,0,0,1,3.251.617,4.12,4.12,0,0,1,1.865,1.7,5.066,5.066,0,0,1,.6,2.5,4.64,4.64,0,0,1-2.448,4.426Zm-6.11-6.658q2.291,0,2.291-2.14,0-2.061-2.291-2.061h-2.6v4.2Z" transform="translate(268.527 86.804)" fill="#fff"/></g></svg>