<svg xmlns="http://www.w3.org/2000/svg" width="100.817" height="58.793" viewBox="0 0 100.817 58.793"><g transform="translate(-144.234 -54.804)"><path d="M237.1,143.021l.111.111-1.529,1.529-1.913-1.912a31.189,31.189,0,0,0-3.437,5.123c-.049.09-.1.18-.143.27a31.028,31.028,0,0,0-3.537,13.651c0,.126-.006.254-.007.38h-5.2a36.282,36.282,0,0,1,2.845-13.705c.029-.072.06-.142.089-.213.038-.088.076-.176.116-.263a36.431,36.431,0,0,1,5.582-8.936q.7-.826,1.45-1.61h0l3.679,3.679h0l.526.525Z" transform="translate(-63 -57)" fill="#ca443b"/><path d="M256.957,126.174h0v5.2h0v2.8h-2.162v-2.668q-1.181.115-2.336.321a30.861,30.861,0,0,0-5.418,1.464,31.276,31.276,0,0,0-11.01,6.986l-3.679-3.679q.72-.706,1.479-1.372c.177-.156.355-.311.535-.462a36.352,36.352,0,0,1,13.614-7.245c.247-.071.5-.138.744-.2a36.245,36.245,0,0,1,6.071-1.031c.714-.061,1.436-.1,2.162-.12" transform="translate(-63 -57)" fill="#e96a3c"/><path d="M283.153,136.334l-5.572,5.572-.084.085-1.529-1.53,1.89-1.889a31.1,31.1,0,0,0-17.119-7.08q-1.241-.112-2.508-.126v-5.2a36.587,36.587,0,0,1,5.887.527q.395.067.784.145a36.223,36.223,0,0,1,14.138,6.083c.229.163.457.329.681.5q.938.7,1.828,1.463.823.7,1.6,1.454" transform="translate(-63 -57)" fill="#feb044"/><path d="M294.345,162.173h-5.2c-.01-.725-.045-1.447-.105-2.16a31.062,31.062,0,0,0-4.206-13.251h0q-.474-.8-.994-1.578h0a31.379,31.379,0,0,0-3.527-4.345l3.676-3.676a36.4,36.4,0,0,1,5.752,7.7h0c.161.29.32.584.476.879s.307.6.455.9h0a36.228,36.228,0,0,1,3.651,14.571c.013.32.02.64.024.959" transform="translate(-63 -57)" fill="#2eac54"/><path d="M302.176,162.173c0,.148,0,.3,0,.443q0,.438-.01.876h-6.7q.009-.252.009-.507c0-.123,0-.245,0-.369,0-.147,0-.295,0-.443-.006-.5-.021-1.006-.048-1.506a37.346,37.346,0,0,0-3.516-14.05q-.436-.929-.922-1.828l-.014-.026a37.654,37.654,0,0,0-6.19-8.4q-.408-.422-.833-.829h0q-.78-.752-1.6-1.456-1.074-.921-2.217-1.762c-.052-.039-.1-.076-.156-.113a37.38,37.38,0,0,0-15.142-6.531l-.235-.044a37.8,37.8,0,0,0-6.707-.6c-.313,0-.627.005-.938.012q-1.089.027-2.163.115a37.559,37.559,0,0,0-6.615,1.14c-.082.024-.167.046-.249.069a37.489,37.489,0,0,0-14.453,7.675l-.242.208q-1.31,1.142-2.509,2.4-.748.782-1.452,1.606a37.563,37.563,0,0,0-5.726,9.082c-.1.227-.2.455-.3.683-.073.172-.144.346-.213.52a37.38,37.38,0,0,0-2.724,13.636c0,.148,0,.3,0,.443,0,.294,0,.586.011.876h-6.7c-.008-.292-.01-.584-.01-.876,0-.147,0-.295,0-.443,0-.308.009-.615.019-.923l-6.4-2.582a50.678,50.678,0,0,1,1.605-9.348q.14-.51.288-1.015l6.9-.14a43.922,43.922,0,0,1,2.682-6.191l-4.62-5.118a50.98,50.98,0,0,1,6.315-8.53l.81.374,2.915,1.345,2.54,1.173a44.89,44.89,0,0,1,4.759-4.108l-1.96-6.614a50.509,50.509,0,0,1,9.44-5.024l4.406,5.319a43.756,43.756,0,0,1,6.032-1.633l1.108-6.812a51.328,51.328,0,0,1,7.445-.542c1.113,0,2.22.037,3.315.107l1.657,6.7a44.174,44.174,0,0,1,6.15,1.133L273,114.087a50.408,50.408,0,0,1,9.925,4.3l-1.438,6.744a44.375,44.375,0,0,1,5.013,3.678h0l2.5-1.378,1.452-.8,2.11-1.163a50.985,50.985,0,0,1,7.093,8.192l-4.238,5.422a44.081,44.081,0,0,1,2.85,5.308l6.926-.383q.453,1.149.849,2.324a50.477,50.477,0,0,1,2.011,8.1l-6.167,3.047a44.578,44.578,0,0,1,.292,4.694" transform="translate(-63 -57)" fill="#fff"/><path d="M281.972,147.224c-.086-.134-.173-.266-.259-.4-.148-.215-.3-.429-.444-.645l-1.159.678H280.1l-3.7,2.15h0l-4.958,2.88-.3.173-1.3.756-8.767,5.091a5.25,5.25,0,0,0-8.1,4.265c0,.048,0,.1,0,.141,0,.1,0,.2.008.295l-1.522.883-4.056,2.356,3.016,4.749,5.3-3.671c.037.022.077.043.116.062.056.03.114.058.171.084a.33.33,0,0,0,.043.019l.116.052.017.007.013.005c.033.014.067.029.1.041s.085.034.129.049l.13.047.2.061.156.043c.071.018.144.035.219.05.05.012.1.021.152.03a.189.189,0,0,0,.033.006l.034.006a.307.307,0,0,0,.042.007c.048.008.1.016.146.021s.1.013.146.017l.076.008.118.009h.032q.06,0,.12.006h.028c.056,0,.111,0,.167,0a5.243,5.243,0,0,0,5.247-5.248c0-.046,0-.093,0-.141a5.518,5.518,0,0,0-.047-.578l8.608-5.959.094-.065,2.919-2.022.458-.317,7.129-4.936c-.218-.358-.437-.714-.655-1.072m-27.792,18.44-.022-.028c.015.02.032.038.049.058a.072.072,0,0,0,.011.015c-.013-.014-.025-.029-.038-.045" transform="translate(-63 -57)" fill="#2eac54"/></g></svg>