<svg xmlns="http://www.w3.org/2000/svg" width="82.383" height="82.382" viewBox="0 0 82.383 82.382"><path d="M1157.328,1835.038a41.192,41.192,0,1,1-41.192-41.191,41.191,41.191,0,0,1,41.192,41.191" transform="translate(-1074.945 -1793.847)" fill="#39b54a"/><path d="M1116.136,1814.281a20.758,20.758,0,1,1-20.757,20.757A20.757,20.757,0,0,1,1116.136,1814.281Z" transform="translate(-1074.945 -1793.847)" fill="none" stroke="#fff" stroke-linecap="round" stroke-linejoin="round" stroke-width="4.151"/><path d="M1116.136,1822.583a12.455,12.455,0,1,1-12.454,12.455A12.455,12.455,0,0,1,1116.136,1822.583Z" transform="translate(-1074.945 -1793.847)" fill="none" stroke="#fff" stroke-linecap="round" stroke-linejoin="round" stroke-width="4.151"/><path d="M1116.136,1830.886a4.151,4.151,0,1,1-4.151,4.152A4.151,4.151,0,0,1,1116.136,1830.886Z" transform="translate(-1074.945 -1793.847)" fill="none" stroke="#fff" stroke-linecap="round" stroke-linejoin="round" stroke-width="4.151"/></svg>